Patient4_TMGait_0pt6_01_right_48_EMG.mot
version=1
nRows=33
nColumns=33
inDegrees=no
endheader
time	1LAddLong	2LGlutMax	3LGlutMed	4LIliopsoas	5LSemiMemb	6LBicFemLong	7LRecFem	8LVastMed	9LVastLat	10LGasMed	11LTibAnt	12lTibPost	13LPeroneusLong	14LSol	15LExtDigLong	16LFlexDigLong	17RAddLong	18RGlutMax	19RGlutMed	20RIliopsoas	21RSemiMemb	22RBicFemLong	23RRecFem	24RVastMed	25RVastLat	26RGasMed	27RTibAnt	28RTibPost	29RPeroneusLong	30RSol	31RExtDigLong	32RFlexDigLong
57.83	0.012054	0.037994	0.011749	0.00473	-0.000458	0.000153	0.009003	0.008087	0.051117	-0.2121	0.01236	-0.020447	-0.18616	0.28763	0.007019	-0.068665	-0.050507	-0.076904	0.31265	0.056152	-0.004272	0.15335	0.071869	-0.03891	-0.058899	0.002136	0.088654	-0.002136	-0.39444	-0.005035	0.002899	0.003815
57.831	0.010376	0.049286	-0.034332	0.009918	-0.035553	0.072784	0.023651	0.018311	0.049744	-0.010834	0.014648	-0.006561	-0.14175	0.44846	0.027618	0.33356	-0.035858	-0.043488	0.001526	0.051727	-0.002441	0.13931	0.060577	-0.037079	-0.043793	0.004425	0.10773	-0.006409	-0.23285	0.020447	-0.001068	-0.00885
57.832	0.00885	0.033569	-0.020142	0.000763	0.001373	0.13702	0.030212	0.016785	0.024872	-0.12787	0.00351	-0.003967	-0.054626	0.55435	0.035706	0.18387	-0.026703	-0.053406	-0.13107	-0.033417	-0.003052	0.15137	0.076294	-0.068207	-0.056763	0.003052	-0.1712	-0.002747	0.13596	-0.014343	-0.002136	-0.004425
57.833	-0.000305	0.045166	0.067902	-0.007782	0.026093	0.1889	0.021515	0.016327	0.032349	0.044098	-0.000916	-0.025024	0.001373	0.42389	0.029449	0.052795	-0.024414	-0.051117	0.03067	-0.059052	0.026398	0.13184	0.050354	-0.084991	-0.059509	0.008698	-0.19562	0.000763	0.4393	-0.0383	-0.000916	-0.001678
57.834	-0.001526	0.07782	0.1239	-0.011139	-0.055084	0.14847	0.024414	0.012207	0.041809	0.34958	-0.009766	-0.028687	0.073242	0.02655	0.0354	0.042419	-0.021667	-0.063324	0.059052	-0.046234	0.05127	0.099182	0.025177	-0.058441	-0.052338	0.005646	-0.060425	-0.001373	-0.13931	-0.044861	0.005798	-0.00824
57.835	0.007019	0.045776	0.033722	-0.009766	-0.019379	0.09552	0.025787	0.016632	0.053406	0.036774	-0.00473	0.09613	0.1506	-0.11581	0.026245	0.040894	-0.020599	-0.077667	-0.000763	-0.016937	0.089111	0.10132	0.061646	-0.044861	-0.040588	-0.001526	0.025635	-0.003052	-0.47165	-0.032654	0.000153	-0.002136
57.836	0.012512	0.031586	-0.037079	-0.001221	-0.012817	0.056305	0.030823	0.019989	0.06012	-0.2887	0.010529	0.006866	0.13855	0.005035	0.0177	0.075989	-0.02121	-0.12985	-0.10162	-0.009766	0.074005	0.13062	0.06485	-0.048523	-0.036316	-0.005493	0.044861	-0.007324	-0.12009	0.000458	-0.00351	-0.000305
57.837	0.021973	0.035858	-0.021667	0.017548	0.057373	-0.06546	0.023804	0.011139	0.047302	-0.13779	0.006104	-0.059814	0.059509	0.27344	0.022125	-0.46509	0.005188	-0.073853	0.005188	-0.057526	0.052338	0.12375	0.014648	-0.058136	-0.062408	-0.005798	-0.00824	-0.006256	0.29282	0.028687	-0.002747	-0.001831
57.838	0.018005	0.080566	0.037384	0.022736	0.10483	-0.13443	0.043182	0.012512	0.048676	0.033569	0.014191	0.084839	-0.057526	0.3389	0.026398	-0.53314	0.015106	-0.052185	0.041809	-0.049591	0.028229	0.11261	0.050507	-0.057831	-0.045929	-0.006866	-0.09491	-0.005798	0.3006	0.06012	-0.005646	0.000305
57.839	0.014496	0.068665	0.053253	0.012512	0.063934	-0.15381	0.046844	0.019684	0.050659	0.10223	0.007324	0.085602	-0.011902	0.48401	0.035553	0.91049	0.012665	-0.026093	0.038757	-0.027466	0.015259	0.097198	0.016632	-0.103	-0.044861	-0.011444	-0.0914	0.000916	0.38864	0.055847	-0.003662	0.007172
57.84	0.010071	0.049744	-0.000305	0.010681	0.065002	-0.13168	0.033417	-0.015106	0.054474	0.12451	0.007019	-0.085297	0.18662	0.64957	0.02594	-0.075378	-0.009003	-0.086823	-0.036316	-0.000763	0.002441	0.078278	-0.009766	-0.084686	-0.034332	-0.009613	-0.018768	-0.005493	0.27863	0.055389	-0.005646	0.002899
57.841	0.020294	0.055695	0.034027	0.010681	0.071869	-0.083618	0.048218	0.017395	0.057526	0.17181	0.000763	0.15381	0.19058	0.60806	0.029297	-0.47043	-0.00885	-0.060577	0.01236	0.033569	-0.001831	0.1001	0.038605	-0.099945	-0.032959	-0.003357	0.16235	-0.008698	0.21729	0.019531	-0.001068	0.005798
57.842	0.007935	0.061646	0.021362	0.013275	0.039215	-0.064392	0.045776	0.019073	0.057068	-0.20157	-0.014343	-0.40894	0.098114	0.30914	0.050659	-0.18936	-0.007324	-0.085907	0.097656	0.047302	0.009613	0.11627	0.029602	-0.061646	-0.037994	-0.007477	0.29968	-0.002136	0.089569	0.002747	-0.005646	0.006104
57.843	0.017395	0.10132	0.025787	0.000153	0.056763	-0.04303	0.055084	0.045624	0.045166	-0.43686	-0.000916	0.17456	-0.006409	0.20111	-0.029449	0.74143	-0.014648	-0.070801	0.096588	0.020447	0.039063	0.11719	0.037689	-0.056305	-0.037842	-0.000153	0.39505	-0.000458	-0.11734	-0.017548	0.002289	0.004425
57.844	0.015259	0.079803	0.016022	0.006866	0.024261	-0.020752	0.055084	0.01236	0.062408	-0.24582	0.00412	0.039368	0.15564	-0.38803	-0.075836	-0.32349	-0.007172	-0.059967	-0.00412	0.024719	0.033569	0.12421	0.06073	-0.098419	-0.043793	-0.005951	0.53513	-0.003357	-0.23956	-0.021667	-0.001984	0.006104
57.845	0.008545	0.069122	0.033569	-0.006714	0.029907	0.010834	0.047455	0.006104	0.033875	-0.002899	0.005188	-0.041656	0.2272	-0.82581	-0.065155	0.17395	-0.012207	-0.060272	0.063019	-0.039368	0.012817	0.11261	0.046082	-0.090637	-0.048676	-0.005646	0.4921	-0.004272	-0.24246	-0.037537	-0.00412	0.002441
57.846	0.011749	0.080719	0.003204	-0.017242	0.012665	0.029907	0.070953	0.013275	0.000458	0.063629	0.014038	0.000458	-0.36484	-1.163	-0.055084	0.010529	-0.01297	-0.10834	0.23102	-0.073242	-0.016479	0.098724	0.04715	-0.076141	-0.036621	-0.005188	-0.013733	0.00061	-0.19104	-0.041351	-0.005341	0
57.847	0.010834	0.045776	-0.05127	0.008698	0.041199	-0.00061	0.088501	0.006714	0.013428	-0.007782	0.001678	-0.022888	-0.40253	-1.0078	-0.059967	-0.069733	-0.009155	-0.10086	0.26108	-0.048523	-0.009003	0.088196	0.033569	-0.059967	-0.028076	-0.002441	-0.02655	0.000153	0.029297	-0.071411	-0.004883	-0.003662
57.848	0.01297	0.014801	-0.1387	0.003357	0.000153	-0.012512	0.11429	0.017242	0.038452	-0.074921	-0.003967	-0.013275	-0.073547	0.030823	-0.045319	-0.30533	-0.010529	-0.11673	0.35721	-0.005035	0.009003	0.067596	0.033875	-0.078583	-0.034637	0.007629	0.039978	0.000153	0.1741	-0.12482	-0.007019	-0.002899
57.849	0.009766	0.049438	0.041199	-0.016479	0.011139	-0.038147	0.098267	0.007477	0.048065	-0.007019	0.013733	-0.013275	-0.002594	0.25421	0.013885	0.10788	-0.027466	-0.11185	0.20432	0.10925	-0.004425	0.086365	0.011749	-0.03891	-0.028381	0.007172	-0.22034	0.001526	0.22156	-0.12924	-0.002747	0.000916
57.85	0.006714	0.059509	0.11002	-0.019989	0.025177	-0.034485	0.10056	0.010681	0.063019	0.001526	0.014343	-0.014496	-0.023193	-0.19501	0.026703	0.14374	-0.0177	-0.1152	-0.039215	0.058594	-0.034027	0.10117	-0.034485	-0.025024	-0.020447	0.004425	-0.024872	-0.002441	0.1831	-0.097656	-0.015106	0.000305
57.851	0.007782	0.047455	0.17731	-0.014191	0.024872	-0.059662	0.086365	0.007477	0.055237	-0.03067	-0.003967	-0.025024	0.19547	-0.18433	-0.039215	-0.33997	-0.004272	-0.089417	-0.050812	0.022888	-0.037231	0.093842	-0.010834	-0.018616	-0.021973	0.006866	-0.34347	-0.002747	0.17471	-0.16937	-0.004578	-0.001678
57.852	0.019989	0.07782	0.20325	0.009766	0.055389	-0.089264	0.07431	0.009918	0.042114	0.073547	0.001831	-0.025024	-0.2533	-0.017853	-0.046844	0.22369	-0.009003	-0.12924	0.062866	0.04364	-0.031738	0.075836	-0.000458	-0.041351	-0.041046	0.00473	-0.17899	-0.007935	0.001831	-0.11917	-0.002441	-0.010681
57.853	0.019836	0.054626	0.27039	0.029602	0.041656	-0.049591	0.061035	0.010376	0.035553	0.1796	0.011292	-0.029755	-0.090637	-0.22354	0.029602	0.05249	-0.003052	-0.16739	0.019684	-0.002289	-0.032654	0.063171	0.041504	-0.063324	-0.050507	-0.009003	0.080872	0.000153	-0.13886	-0.055847	0	-0.001526
57.854	0.020752	0.059814	0.31906	0.023956	0.029602	-0.015869	0.033264	0.018158	-0.006409	0.034485	0.009766	-0.034637	-0.035248	-0.35431	0.023346	-0.058289	0.002594	-0.10788	0.40176	0.024414	-0.02655	0.053101	0.025177	-0.072632	-0.049591	-0.006714	-0.033569	-0.001678	-0.10941	-0.034943	-0.003662	-0.006714
57.855	0.015411	0.008087	0.20584	0.022278	0.016785	0.031433	0.008545	0.015259	-0.008087	-0.12253	0.00351	-0.051575	-0.10437	-0.20264	0.036469	-0.064392	0.00473	-0.12894	0.16098	0.088196	-0.034637	0.036621	0.025482	-0.1181	-0.041046	0.001678	-0.61722	-0.001831	-0.20233	0.074158	-0.003052	-0.000458
57.856	0.018616	0.010529	0.060577	0.008545	0.016785	0.054626	0.046997	0.014343	0.025177	-0.019379	-0.005646	-0.032959	0.090942	0.010834	0.059052	-0.056152	0.009613	-0.11673	0.39597	0.038147	-0.020905	0.015564	-0.009003	-0.076141	-0.024261	0.001526	-0.44632	-0.005341	0.12375	0.030823	-0.001831	0.005188
57.857	0.018158	-0.029449	-0.036926	-0.010834	0.00473	0.040894	0.10788	0.003967	-0.030975	0.71457	0.002289	-0.028076	-0.066528	0.39246	0.056152	-0.36057	0.017548	-0.14847	0.16678	0.05127	-0.027161	0.001678	-0.021973	-0.10635	-0.038605	-0.004425	-0.00885	-0.000305	0.10788	-0.084229	0.001526	0.005188
57.858	0.011597	-0.026398	-0.13153	-0.008392	0.005951	0.043335	0.062408	0.009918	-0.0354	0.99655	0.006104	0.016632	-0.18158	0.4541	0.024261	-0.066681	0.024109	-0.14801	-0.07019	-0.022888	-0.011597	-0.002136	0.020142	-0.083923	-0.019073	0.002289	0.15243	0.001221	-0.086517	-0.067139	-0.005341	0.000763
57.859	0.016327	-0.062256	-0.1712	0.010376	-0.011597	0.020905	-0.014801	0.005341	-0.020752	0.4747	0.001831	-0.079956	-0.30533	0.32532	0.021667	0.14145	0.008087	-0.088501	-0.018311	-0.052032	-0.045624	0.002747	-0.003967	-0.082703	-0.031281	0.00946	0.29694	-0.000153	0.037689	-0.034027	-0.001831	0.006714
57.86	0.011749	-0.058746	-0.16174	0.018158	-0.017853	0.015411	-0.030212	0.007172	0.025787	0.25955	-0.010071	-0.26016	-0.27618	0.1471	-0.021973	-0.033264	0.001984	-0.11429	-0.10773	-0.068359	-0.1445	0.021362	0.077057	-0.066528	-0.011749	0.002899	0.12726	0.012512	0.36926	-0.009003	-0.005188	0.003967
57.861	0.015411	-0.046997	-0.12207	0.000916	0.012054	0.026855	0.009918	0.007629	0.076752	0.81055	0.013428	0.46356	-0.13794	-0.055542	-0.014191	-0.060577	-0.024872	-0.11139	-0.023956	-0.242	-0.17395	0.074768	0.081635	-0.023651	-0.00824	0.002899	-0.13107	-0.000305	0.19302	-0.025635	-0.003052	0.004272
57.862	0.013733	-0.018616	-0.14587	0.004425	0.039063	0.062561	0.063477	0.010986	0.038452	0.86548	0.009308	0.04837	0.039368	-0.29327	0.067596	0.056458	-0.02182	-0.12222	0.13199	-0.22629	-0.12634	0.041046	0.12299	-0.067749	-0.012054	0.001526	-0.25787	0.003357	-0.4097	-0.039215	-0.003357	0.001526
